<svg width="420" height="260" viewBox="0 0 420 260" fill="none" xmlns="http://www.w3.org/2000/svg">
  <rect x="16" y="24" width="388" height="212" rx="28" fill="#020617"/>
  <rect x="16" y="24" width="388" height="212" rx="28" stroke="#1E293B"/>
  <rect x="44" y="56" width="104" height="16" rx="8" fill="#0F172A"/>
  <rect x="44" y="86" width="72" height="10" rx="5" fill="#111827"/>
  <rect x="44" y="104" width="132" height="10" rx="5" fill="#111827"/>
  <rect x="44" y="122" width="112" height="10" rx="5" fill="#111827"/>
  <rect x="44" y="158" width="140" height="8" rx="4" fill="#1F2937"/>
  <rect x="44" y="176" width="96" height="8" rx="4" fill="#1F2937"/>
  <rect x="210" y="60" width="170" height="140" rx="20" fill="#020617" stroke="#1E293B"/>
  <rect x="230" y="82" width="90" height="10" rx="5" fill="#0F172A"/>
  <rect x="230" y="102" width="130" height="8" rx="4" fill="#111827"/>
  <rect x="230" y="120" width="110" height="8" rx="4" fill="#111827"/>
  <rect x="230" y="140" width="80" height="8" rx="4" fill="#111827"/>
  <rect x="230" y="168" width="120" height="6" rx="3" fill="#4F46E5"/>
  <rect x="230" y="182" width="84" height="6" rx="3" fill="#22C55E"/>
</svg>

